<svg xmlns="http://www.w3.org/2000/svg" id="Livello_1" data-name="Livello 1" viewBox="0 0 1268.58 500"><defs><style>      .cls-1 {        fill: #fff;        stroke-width: 0px;      }    </style></defs><path class="cls-1" d="M978.2,490.8c-7.15.69-14.29.83-21.41-.36-13.91-2.32-18.1-6.88-18.26-21.13-.24-21.46-.16-42.93-.08-64.39.04-11.49-2.3-24.36,15.46-27.49-17.83-3.39-34.39-3.41-52.29.01,15.6,3.81,13.62,15.37,13.65,25.85.06,23.85.14,47.7-.07,71.54-.14,15.61-8.98,21.81-24.25,17.54-6.12-1.71-11.05-5.22-15.18-9.92-9.9-11.26-19.48-22.81-29.73-33.74-6-6.4-5.75-9.17,3.03-12.2,15.71-5.41,22.97-17.06,22.13-32.81-.7-13.2-9.46-23.06-25.69-26.4-24.24-5-48.87-2.26-73.35-1.93-.78.01-1.54,1.09-3.04,2.23,5.97,3.99,13.18,6.26,13.09,15.15-.28,28.95-.07,57.91-.18,86.86-.02,6.37-2.89,11.04-9.28,13.21-1.95.66-5.17.3-4.57,4.69h59.5c-4.26-4.86-7.63-4.07-10.49-4.76-7.3-1.75-11.27-6.23-11.44-13.65-.24-10.21-.22-20.44-.17-30.65.01-2.26-.37-5.12,2.6-6.03,2.57-.79,4.68.8,6.37,2.45,2.93,2.84,5.76,5.81,8.36,8.95,10.42,12.61,20.76,25.27,31.06,37.98,3.11,3.84,6.43,6.86,11.86,6.85,44.99-.06,89.98-.02,134.97-.02,3.55,0,7.77-.44,8.3-4.37,1.31-9.79,1.7-19.71,2.5-30.03-5.72.87-6.11,3.9-6.84,6.37-3.91,13.3-13.56,18.93-26.57,20.19ZM831.91,429.99c-.64.21-1.3.39-1.95.58-19.68,5.68-24.47,2.23-24.49-17.67,0-1.7,0-3.39,0-5.09,0-2.04-.29-4.12.05-6.1,1.08-6.29-3.64-15.51,4.46-18.19,9.58-3.17,20.33-2.88,29.14,4.07,8.13,6.42,9.34,15.39,7.89,24.92-1.35,8.89-6.59,14.66-15.1,17.49Z"></path><path class="cls-1" d="M668.7,321.16c8.28-1.55,12.55-6.46,13.37-14.47,1.08-10.49,2.89-21.06,2.48-31.52-.9-22.86,6.08-42.87,19.02-61.25,6.87-9.75,13.59-19.59,20.36-29.4,4.36-6.31,8.7-12.63,14.73-21.39-14.77,3.44-26.7,5.8-38.39,9.04-14.08,3.9-28.52,7.18-40.33,16.63-13.14,10.52-13.89,10.56-28.4,1.32-20.51-13.07-43.59-18.94-67.04-23.69-2.84-.57-6.57-1.7-8.43,1.47-1.62,2.75,1.21,5.05,2.68,7.2,7.5,10.97,14.74,22.13,22.78,32.69,15.15,19.9,21.16,42.34,20.37,67.01-.33,10.22.06,20.41,2.43,30.46,1.91,8.07,6.47,13.39,14.66,15.23,16.51,3.71,33.05,3.8,49.7.68Z"></path><path class="cls-1" d="M1091.78,499.53c33.8.04,61.87-20.38,67.74-49.32,6.27-30.92-9.74-59.83-39.92-72.06-31.18-12.64-68.99-1.74-85.96,25.36-12.49,19.94-14.36,41.1-2.73,61.98,13.12,23.57,34.4,33.76,60.87,34.04ZM1058.61,402.21c14.25-26.85,51.21-27.04,66.9-.9,6.68,11.13,8.85,23.41,8.44,36.23.41,10.7-1.23,21.02-5.99,30.7-7.29,14.83-19.4,22.74-35.78,22.75-16.39,0-29.04-7.6-35.61-22.82-9.55-22.11-9.26-44.67,2.04-65.96Z"></path><path class="cls-1" d="M1196.1,494.09c18.97,8.38,37.95,8.07,55.95-2.29,20.37-11.72,22.15-38.57,4.03-53.5-8.51-7.01-18.39-11.67-28.64-15.53-7.34-2.77-14.8-5.35-21.28-9.86-9.27-6.46-10.13-17.96-1.99-25.36,5.65-5.13,12.59-6.6,19.99-5.93,13.32,1.21,21.42,9.32,27.06,20.69.94,1.9,1.5,5.19,4.83,3.92,2.25-.86,1.87-3.43,1.89-5.4.07-7.45.03-14.89.03-22.34-.71-1.17-1.43-2.34-2.14-3.51-4.19,9.08-8.7,5.74-13.37,3.36-12.14-6.19-24.81-7.12-37.69-2.79-12.21,4.1-20.42,12.19-22.82,25.18-2.3,12.48,2.03,22.79,11.34,31.1,6.96,6.22,15.33,10.06,23.84,13.66,7.21,3.05,14.5,5.98,21.44,9.58,6.85,3.55,10.75,9.25,9.95,17.47-.78,7.99-5.29,13.04-12.36,16.15-19.03,8.36-41.25-.38-49.78-19.42-1.3-2.9-1-6.9-6.44-8.95-2.41,12.49.6,24.03,2.4,37.41,3.7-10.7,8.7-5.86,13.77-3.62Z"></path><path class="cls-1" d="M302.18,116.65c8.3,9.32,18.3,16.23,29.73,21.17,22.3,9.64,45.95,12.48,69.86,13.49,46.01,1.93,91.92-3.77,137.95-1.97,35.59,1.4,69.08,8.87,96.15,33.92,7.77,7.19,13.7,6.46,20.82-.48,15.52-15.13,34.01-24.87,55.46-28.68,17.14-3.05,34.42-4.73,51.84-4.76,40.9-.08,81.81.39,122.69-.42,22.08-.44,44.32-1.47,65.76-7.95,35.28-10.66,55.36-46.59,45.67-82.16-4.68-17.18-13.3-32.65-22.23-49.94-2.41,5.41-1.33,8.77-.87,12.08,6.61,47.19-23.36,85.33-70.7,89.55-13.23,1.18-26.52,1.94-39.8,2.13-77.36,1.09-154.7-.88-232.05-1.31-62.69-.35-125.38.01-188.01,3.45-30.91,1.7-61.97,1.64-89.66-14.21-36.1-20.66-43.08-37.97-38.65-69.05C317.61,21.24,317.8,10.79,318.6,0c-1.75.5-2.58.48-2.92.87-1.11,1.28-2.09,2.68-3.04,4.09-17.86,26.7-21.96,56.77-21.16,87.91.23,9.16,4.63,16.98,10.69,23.78Z"></path><path class="cls-1" d="M615.36,459.35c-5.66-1.39-5.52,6.44-7.69,10.2-8.73,15.21-22.09,21.9-39.02,21.33-15.85-.54-28.6-7.44-34.56-22.73-8.38-21.51-8.22-43.35,1.48-64.5,6.37-13.9,17.67-21.18,33.2-21.39,17.42-.24,28.77,8.53,35.77,23.92,1.05,2.3,1.52,5.64,5.24,5.28,1.97-.19,2.89-1.96,3.05-3.63.85-9.14,1.55-18.29,2.21-27.44.13-1.78-.64-3.45-2.38-4.15-1.85-.73-3.55.19-4.25,1.82-2.96,6.85-7.26,4.07-11.62,1.87-15.64-7.89-31.94-8.76-48.71-4.46-28.69,7.36-46.65,32.31-46.27,64.26.35,29.75,17.04,51.91,44.96,57.81,18.63,3.94,37.3,3.52,54.51-6.51,4.45-2.6,8.69-5.13,10.7,2.51.44,1.66,1.25,3.43,3.38,3.02,1.98-.38,2.47-2.31,2.52-3.99.13-4.76.05-9.52.05-14.28.1,0,.21,0,.31,0,0-2.04.22-4.11-.04-6.12-.59-4.5,2.22-11.59-2.83-12.83Z"></path><path class="cls-1" d="M0,495.48c1.47,1.59,1.91,2.5,2.36,2.51,28.88.43,58.06,4.13,86.45-2.79,23.59-5.75,39.86-20.84,43.9-45.84,6.29-38.89-21.03-71.96-61.48-74.15-19.7-1.07-39.51-.36-59.26-.35-2.56,0-5.59-.63-7.65,3.36,13.37,5.11,12.19,16.84,12.24,27.98.08,18.05.2,36.1-.03,54.14-.18,14.1,3.7,30.15-16.52,35.13ZM48.76,382.58c20.51-.68,40.53.88,51.29,21.58,11.85,22.79,12.88,46.6-.83,69.12-9.19,15.1-34.47,21.32-50.4,14.03-7.52-3.44-10.03-9.77-10.09-17.42-.09-12.92-.03-25.85-.03-38.77h-.04c0-12.58.16-25.17-.06-37.75-.13-7.19,2.77-10.55,10.15-10.79Z"></path><path class="cls-1" d="M757.38,492.62c-10.59-2.78-14.7-11.3-18.37-20.3-12.09-29.6-24.19-59.2-36.39-88.75-1.89-4.59-3.11-10.16-9.77-10.29-6.81-.14-7.93,5.48-9.79,10.1-12.18,30.3-24.27,60.63-36.39,90.96-2.94,7.36-6.07,14.5-14.24,17.71-1.78.7-4.38,1.52-3.76,4.08.73,3.02,3.71,2.47,5.98,2.51,6.12.12,12.27.39,18.37-.02,4.53-.31,9.89,2,14.64-3.57-9.5-2.54-14.92-6.65-12.24-16.86,3.97-15.09,6.48-17.82,19.98-17.92,8.51-.07,17.02-.02,25.52.08,3.41.04,6.68.39,9.18,3.41,9.98,12.06,7.93,24.58-5.31,31.64-.05,1-.1,2.01-.16,3.01,17.76,0,35.52.02,53.28-.03,1.44,0,2.66-.93,2.75-2.45.13-2.16-1.72-2.89-3.29-3.3ZM698.76,452.27c-8.46.11-16.93.14-25.38-.1-4.05-.11-6.62-2.33-5-6.66,5.28-14.1,10.79-28.11,16.21-42.16,1.06.01,2.13.03,3.19.04,5.4,14.4,10.95,28.75,16.09,43.24,1.39,3.91-1.63,5.58-5.11,5.63Z"></path><path class="cls-1" d="M400.94,377.24c15.32,4.91,14.69,16.97,14.73,28.63.06,17.36.07,34.73-.05,52.09-.02,2.54,1.13,6.25-2.09,7.2-3.16.93-4.27-2.77-5.73-4.85-15.85-22.57-32.45-44.68-47.05-68.04-8.45-13.53-18.27-20.12-34.08-17.55-6.95,1.13-14.52-1.95-23.89,4.13,15.01,1.78,17.87,10.98,17.97,21.47.23,24.5.2,49.01-.04,73.51-.09,9.43-2.62,17.69-13.85,19.63-1.1.19-2.55,1.29-2.9,2.29-.51,1.48.83,2.59,2.31,2.6,13.65.06,27.3.04,40.95.04-3.89-6.65-12.16-6.22-13.39-13.27-4.89-28.22-1.3-56.5-2.26-85.26,6.09,1.12,7.19,4.71,9.05,7.35,14.16,20.01,28.21,40.11,42.3,60.17,6.07,8.64,12.18,17.24,18.22,25.9,5.23,7.5,12.95,7.16,20.3,5.55,7.41-1.62,5.45-8.51,5.48-13.64.16-25.53-.03-51.07.13-76.6.08-13.03-3.18-28.06,17.6-31.12-15.22-3.33-29.05-3.45-43.72-.22Z"></path><path class="cls-1" d="M219.77,499.46c32.43-.1,59.18-19.11,66.34-47.14,11.34-44.44-28.61-85.65-76.36-78.78-40.12,5.78-65.17,39.11-57.64,76.69,5.8,28.93,33.84,49.33,67.67,49.23ZM185.93,401.66c7.78-12.94,19.04-19.97,34.56-19.43,15.39.53,26.81,7.64,33.36,21.35,9.71,20.32,10.34,41.43,2.23,62.37-6.28,16.21-18.93,24.84-36.24,25.03-17.32.18-29.68-8.46-36.9-24.21-4.34-9.47-5.7-19.51-5.27-29.48-.36-12.84,1.75-24.81,8.25-35.62Z"></path></svg>