<svg xmlns="http://www.w3.org/2000/svg" width="83" height="83" viewBox="0 0 83 83" fill="none"><path d="M41.4994 33.9543V50.0262H63.8338C62.8531 55.1948 59.91 59.5714 55.496 62.514L68.9646 72.9646C76.8118 65.7212 81.3391 55.082 81.3391 42.4434C81.3391 39.5007 81.0751 36.6709 80.5845 33.9548L41.4994 33.9543Z" fill="#4285F4"></path><path d="M18.2416 49.3989L15.2039 51.7242L4.45148 60.0995C11.2801 73.6435 25.2759 83 41.4985 83C52.7032 83 62.0972 79.3027 68.9637 72.9647L55.4951 62.5142C51.7978 65.0041 47.0819 66.5134 41.4985 66.5134C30.7085 66.5134 21.5411 59.2321 18.2586 49.4229L18.2416 49.3989Z" fill="#34A853"></path><path d="M4.45149 22.9004C1.6221 28.4838 0 34.7843 0 41.4997C0 48.215 1.6221 54.5156 4.45149 60.099C4.45149 60.1365 18.2599 49.3844 18.2599 49.3844C17.4299 46.8944 16.9393 44.2537 16.9393 41.4993C16.9393 38.7448 17.4299 36.1041 18.2599 33.6141L4.45149 22.9004Z" fill="#FBBC05"></path><path d="M41.4993 16.5245C47.6112 16.5245 53.0439 18.6372 57.3825 22.7118L69.2665 10.8279C62.0605 4.11253 52.7045 0 41.4993 0C25.2767 0 11.2801 9.31862 4.45148 22.9005L18.2595 33.615C21.5415 23.8058 30.7094 16.5245 41.4993 16.5245Z" fill="#EA4335"></path></svg>